<svg width="54" height="50" viewBox="0 0 54 50" fill="none" xmlns="http://www.w3.org/2000/svg">
<path d="M36.5002 13.4993H33.3335C33.3335 10.0002 30.4993 7.16602 27.0002 7.16602C23.501 7.16602 20.6668 10.0002 20.6668 13.4993H17.5002C15.7585 13.4993 14.3335 14.9243 14.3335 16.666V35.666C14.3335 37.4077 15.7585 38.8327 17.5002 38.8327H36.5002C38.2418 38.8327 39.6668 37.4077 39.6668 35.666V16.666C39.6668 14.9243 38.2418 13.4993 36.5002 13.4993ZM27.0002 10.3327C28.7418 10.3327 30.1668 11.7577 30.1668 13.4993H23.8335C23.8335 11.7577 25.2585 10.3327 27.0002 10.3327ZM36.5002 35.666H17.5002V16.666H20.6668V19.8327C20.6668 20.7035 21.3793 21.416 22.2502 21.416C23.121 21.416 23.8335 20.7035 23.8335 19.8327V16.666H30.1668V19.8327C30.1668 20.7035 30.8793 21.416 31.7502 21.416C32.621 21.416 33.3335 20.7035 33.3335 19.8327V16.666H36.5002V35.666Z" fill="#002F52"/>
</svg>
